<svg xmlns="http://www.w3.org/2000/svg" xmlns:xlink="http://www.w3.org/1999/xlink" width="500" zoomAndPan="magnify" viewBox="0 0 375 374.999991" height="500" preserveAspectRatio="xMidYMid meet" version="1.0"><defs><g/><clipPath id="id1"><path d="M 2.125 299 L 372.625 299 L 372.625 309.472656 L 2.125 309.472656 Z M 2.125 299 " clip-rule="nonzero"/></clipPath></defs><rect x="-37.5" width="450" fill="rgb(100%, 100%, 100%)" y="-37.499999" height="449.999989" fill-opacity="1"/><rect x="-37.5" width="450" fill="rgb(22.349548%, 36.079407%, 41.958618%)" y="-37.499999" height="449.999989" fill-opacity="1"/><rect x="-37.5" width="450" fill="rgb(100%, 100%, 100%)" y="-37.499999" height="449.999989" fill-opacity="1"/><rect x="-37.5" width="450" fill="rgb(22.349548%, 36.079407%, 41.958618%)" y="-37.499999" height="449.999989" fill-opacity="1"/><g clip-path="url(#id1)"><path fill="rgb(100%, 100%, 100%)" d="M 2.128906 299.0625 L 372.628906 299.0625 L 372.628906 309.460938 L 2.128906 309.460938 Z M 2.128906 299.0625 " fill-opacity="1" fill-rule="nonzero"/></g><path fill="rgb(100%, 100%, 100%)" d="M 307.777344 278.816406 L 347.453125 278.816406 L 347.453125 256.929688 L 311.609375 256.929688 L 309.964844 201.121094 C 309.964844 201.121094 312.429688 193.1875 320.363281 193.1875 L 319.816406 178.140625 L 242.378906 178.140625 L 242.378906 196.46875 L 188.746094 196.46875 C 188.746094 196.46875 186.285156 183.882812 172.054688 183.882812 C 157.824219 183.882812 157.003906 197.015625 157.003906 197.015625 L 112.675781 196.742188 L 112.128906 178.414062 L 81.207031 178.414062 L 81.207031 196.742188 L 51.382812 196.742188 C 51.382812 196.742188 39.890625 217.808594 50.015625 242.15625 L 65.0625 242.15625 L 57.402344 257.203125 L 28.945312 257.203125 L 28.945312 279.636719 L 46.183594 279.636719 C 49.273438 290.28125 57.652344 298.5 70.808594 299.335938 C 84.738281 300.222656 93.992188 292.28125 96.53125 279.910156 L 116.234375 280.183594 C 119.9375 291.757812 128.269531 299.957031 141.132812 300.15625 C 154.914062 300.371094 163.785156 292.246094 166.582031 279.910156 L 186.011719 279.910156 C 189.871094 291.371094 198.148438 299.984375 212.277344 299.609375 C 226.414062 299.238281 234.695312 290.800781 237.453125 279.089844 L 257.15625 279.089844 C 260.921875 290.101562 268.585938 299.9375 283.699219 299.609375 C 296.21875 299.339844 304.261719 290.867188 307.777344 278.816406 Z M 307.777344 278.816406 " fill-opacity="1" fill-rule="nonzero"/><path fill="rgb(100%, 100%, 100%)" d="M 123.671875 158.820312 C 125.433594 158.925781 144.476562 164.390625 153.125 152.367188 C 154.507812 150.472656 155.027344 147.878906 156.972656 146.441406 C 172.890625 148.761719 176.898438 140.960938 178.773438 140.511719 C 190.867188 147.496094 196.078125 148.90625 210.449219 140.335938 C 214.160156 138.09375 217.480469 135.042969 219.527344 131.179688 C 220.363281 130.046875 221.261719 128.304688 222.921875 128.527344 C 225.253906 129.699219 227.199219 131.585938 229.734375 132.378906 C 263.476562 143.253906 282.066406 95.816406 254.914062 82.484375 C 251.148438 80.273438 266.386719 48.179688 224.320312 38.453125 C 194.5 33.488281 177.597656 54.800781 177.085938 70.53125 C 176.035156 76.097656 177.464844 84.460938 177.5625 86.238281 C 171.894531 88.578125 172.425781 90.667969 169.433594 93.214844 C 141.957031 81.820312 125.773438 97.425781 128.167969 115.800781 C 92.953125 110.414062 94.28125 131.488281 92.746094 143.503906 C 92.308594 146.785156 94.679688 149.613281 94.828125 152.8125 C 94.144531 154.816406 85.117188 157.578125 84.53125 164.460938 C 82.859375 168.539062 83.6875 173.242188 85.710938 177.039062 C 86.269531 177.878906 87.148438 178.441406 87.769531 179.234375 L 107.742188 179.234375 C 111.5625 171.722656 121.15625 159.671875 123.671875 158.820312 Z M 123.671875 158.820312 " fill-opacity="1" fill-rule="nonzero"/><g fill="rgb(22.349548%, 36.079407%, 41.958618%)" fill-opacity="1"><g transform="translate(71.305466, 248.063187)"><g><path d="M 12.847656 0 C 26.617188 0 32.878906 -8.054688 32.878906 -18.507812 C 32.878906 -28.960938 26.5625 -37.015625 12.847656 -37.015625 L 4.027344 -37.015625 C 3.320312 -37.015625 2.941406 -36.632812 2.941406 -35.925781 L 2.941406 -1.089844 C 2.941406 -0.382812 3.320312 0 4.027344 0 Z M 11.105469 -29.613281 L 13.609375 -29.613281 C 21.554688 -29.613281 24.714844 -24.660156 24.714844 -18.507812 C 24.714844 -12.355469 21.5 -7.402344 13.609375 -7.402344 L 11.105469 -7.402344 Z M 11.105469 -29.613281 "/></g></g></g><g fill="rgb(22.349548%, 36.079407%, 41.958618%)" fill-opacity="1"><g transform="translate(105.652983, 248.063187)"><g><path d="M 23.160156 -20.113281 C 21.039062 -23.082031 17.664062 -24.875 13.554688 -24.875 C 6.476562 -24.875 1.578125 -19.597656 1.578125 -12.03125 C 1.578125 -4.410156 6.476562 0.871094 13.554688 0.871094 C 17.664062 0.871094 21.039062 -0.925781 23.160156 -3.917969 C 24.496094 -1.253906 26.78125 0.21875 29.9375 0.542969 L 29.9375 -24.550781 C 26.78125 -24.222656 24.496094 -22.753906 23.160156 -20.113281 Z M 16.058594 -5.660156 C 12.738281 -5.660156 10.34375 -8.273438 10.34375 -11.976562 C 10.34375 -15.675781 12.738281 -18.289062 16.058594 -18.289062 C 19.378906 -18.289062 21.773438 -15.675781 21.773438 -11.976562 C 21.773438 -8.273438 19.378906 -5.660156 16.058594 -5.660156 Z M 16.058594 -5.660156 "/></g></g></g><g fill="rgb(22.349548%, 36.079407%, 41.958618%)" fill-opacity="1"><g transform="translate(138.258628, 248.063187)"><g><path d="M 13.390625 -24.003906 L 13.390625 -34.347656 C 8.109375 -33.261719 5.226562 -29.613281 5.226562 -24.003906 L 1.742188 -24.003906 C 1.035156 -24.003906 0.652344 -23.625 0.652344 -22.917969 L 0.652344 -18.78125 C 0.652344 -18.074219 1.035156 -17.691406 1.742188 -17.691406 L 5.226562 -17.691406 L 5.226562 -1.089844 C 5.226562 -0.382812 5.605469 0 6.316406 0 L 12.300781 0 C 13.011719 0 13.390625 -0.382812 13.390625 -1.089844 L 13.390625 -17.691406 L 16.929688 -17.691406 C 17.636719 -17.691406 18.019531 -18.074219 18.019531 -18.78125 L 18.019531 -22.917969 C 18.019531 -23.625 17.636719 -24.003906 16.929688 -24.003906 Z M 13.390625 -24.003906 "/></g></g></g><g fill="rgb(22.349548%, 36.079407%, 41.958618%)" fill-opacity="1"><g transform="translate(156.929308, 248.063187)"><g><path d="M 23.160156 -20.113281 C 21.039062 -23.082031 17.664062 -24.875 13.554688 -24.875 C 6.476562 -24.875 1.578125 -19.597656 1.578125 -12.03125 C 1.578125 -4.410156 6.476562 0.871094 13.554688 0.871094 C 17.664062 0.871094 21.039062 -0.925781 23.160156 -3.917969 C 24.496094 -1.253906 26.78125 0.21875 29.9375 0.542969 L 29.9375 -24.550781 C 26.78125 -24.222656 24.496094 -22.753906 23.160156 -20.113281 Z M 16.058594 -5.660156 C 12.738281 -5.660156 10.34375 -8.273438 10.34375 -11.976562 C 10.34375 -15.675781 12.738281 -18.289062 16.058594 -18.289062 C 19.378906 -18.289062 21.773438 -15.675781 21.773438 -11.976562 C 21.773438 -8.273438 19.378906 -5.660156 16.058594 -5.660156 Z M 16.058594 -5.660156 "/></g></g></g><g fill="rgb(22.349548%, 36.079407%, 41.958618%)" fill-opacity="1"><g transform="translate(189.534953, 248.063187)"><g><path d="M 13.390625 -24.003906 L 13.390625 -34.347656 C 8.109375 -33.261719 5.226562 -29.613281 5.226562 -24.003906 L 1.742188 -24.003906 C 1.035156 -24.003906 0.652344 -23.625 0.652344 -22.917969 L 0.652344 -18.78125 C 0.652344 -18.074219 1.035156 -17.691406 1.742188 -17.691406 L 5.226562 -17.691406 L 5.226562 -1.089844 C 5.226562 -0.382812 5.605469 0 6.316406 0 L 12.300781 0 C 13.011719 0 13.390625 -0.382812 13.390625 -1.089844 L 13.390625 -17.691406 L 16.929688 -17.691406 C 17.636719 -17.691406 18.019531 -18.074219 18.019531 -18.78125 L 18.019531 -22.917969 C 18.019531 -23.625 17.636719 -24.003906 16.929688 -24.003906 Z M 13.390625 -24.003906 "/></g></g></g><g fill="rgb(22.349548%, 36.079407%, 41.958618%)" fill-opacity="1"><g transform="translate(208.205633, 248.063187)"><g><path d="M 18.617188 -24.332031 C 18.074219 -24.441406 17.417969 -24.550781 16.820312 -24.550781 C 13.933594 -24.550781 11.242188 -23.242188 9.527344 -19.761719 C 8.21875 -22.238281 5.878906 -23.871094 2.613281 -24.550781 L 2.613281 -1.089844 C 2.613281 -0.382812 2.992188 0 3.703125 0 L 9.6875 0 C 10.398438 0 10.777344 -0.382812 10.777344 -1.089844 L 10.777344 -12.085938 C 11.105469 -15.40625 12.792969 -17.148438 15.730469 -17.148438 C 16.492188 -17.148438 17.308594 -17.039062 18.234375 -16.820312 C 18.996094 -16.601562 19.488281 -16.929688 19.488281 -17.691406 L 19.488281 -23.082031 C 19.488281 -23.679688 19.214844 -24.167969 18.617188 -24.332031 Z M 18.617188 -24.332031 "/></g></g></g><g fill="rgb(22.349548%, 36.079407%, 41.958618%)" fill-opacity="1"><g transform="translate(228.618183, 248.063187)"><g><path d="M 23.160156 -20.113281 C 21.039062 -23.082031 17.664062 -24.875 13.554688 -24.875 C 6.476562 -24.875 1.578125 -19.597656 1.578125 -12.03125 C 1.578125 -4.410156 6.476562 0.871094 13.554688 0.871094 C 17.664062 0.871094 21.039062 -0.925781 23.160156 -3.917969 C 24.496094 -1.253906 26.78125 0.21875 29.9375 0.542969 L 29.9375 -24.550781 C 26.78125 -24.222656 24.496094 -22.753906 23.160156 -20.113281 Z M 16.058594 -5.660156 C 12.738281 -5.660156 10.34375 -8.273438 10.34375 -11.976562 C 10.34375 -15.675781 12.738281 -18.289062 16.058594 -18.289062 C 19.378906 -18.289062 21.773438 -15.675781 21.773438 -11.976562 C 21.773438 -8.273438 19.378906 -5.660156 16.058594 -5.660156 Z M 16.058594 -5.660156 "/></g></g></g><g fill="rgb(22.349548%, 36.079407%, 41.958618%)" fill-opacity="1"><g transform="translate(261.223829, 248.063187)"><g><path d="M 6.316406 -28.742188 C 9.253906 -28.742188 12.300781 -30.210938 12.300781 -33.152344 C 12.300781 -36.035156 9.253906 -37.558594 6.316406 -37.558594 C 3.320312 -37.558594 0.328125 -36.035156 0.328125 -33.152344 C 0.328125 -30.210938 3.320312 -28.742188 6.316406 -28.742188 Z M 9.6875 0 C 10.398438 0 10.777344 -0.382812 10.777344 -1.089844 L 10.777344 -14.207031 C 10.777344 -19.8125 7.894531 -23.460938 2.613281 -24.550781 L 2.613281 -1.089844 C 2.613281 -0.382812 2.992188 0 3.703125 0 Z M 9.6875 0 "/></g></g></g><g fill="rgb(22.349548%, 36.079407%, 41.958618%)" fill-opacity="1"><g transform="translate(274.287865, 248.063187)"><g><path d="M 18.074219 -24.875 C 14.914062 -24.875 11.976562 -23.488281 9.5 -19.839844 C 8.164062 -22.265625 5.824219 -23.898438 2.613281 -24.550781 L 2.613281 -1.089844 C 2.613281 -0.382812 2.992188 0 3.703125 0 L 9.6875 0 C 10.398438 0 10.777344 -0.382812 10.777344 -1.089844 L 10.777344 -13.527344 C 11.105469 -16.519531 12.984375 -18.34375 15.296875 -18.34375 C 17.855469 -18.34375 18.945312 -16.765625 18.945312 -13.933594 L 18.945312 -1.089844 C 18.945312 -0.382812 19.324219 0 20.03125 0 L 26.019531 0 C 26.726562 0 27.109375 -0.382812 27.109375 -1.089844 L 27.109375 -13.933594 C 27.109375 -20.46875 24.496094 -24.875 18.074219 -24.875 Z M 18.074219 -24.875 "/></g></g></g></svg>