<svg xmlns="http://www.w3.org/2000/svg" xmlns:xlink="http://www.w3.org/1999/xlink" width="500" zoomAndPan="magnify" viewBox="0 0 375 374.999991" height="500" preserveAspectRatio="xMidYMid meet" version="1.0"><defs><g/><clipPath id="id1"><path d="M 112.5 112.5 L 262.5 112.5 L 262.5 262.5 L 112.5 262.5 Z M 112.5 112.5 " clip-rule="nonzero"/></clipPath></defs><rect x="-37.5" width="450" fill="rgb(100%, 100%, 100%)" y="-37.499999" height="449.999989" fill-opacity="1"/><rect x="-37.5" width="450" fill="rgb(22.349548%, 36.079407%, 41.958618%)" y="-37.499999" height="449.999989" fill-opacity="1"/><rect x="-37.5" width="450" fill="rgb(100%, 100%, 100%)" y="-37.499999" height="449.999989" fill-opacity="1"/><rect x="-37.5" width="450" fill="rgb(22.349548%, 36.079407%, 41.958618%)" y="-37.499999" height="449.999989" fill-opacity="1"/><g clip-path="url(#id1)"><path fill="rgb(100%, 100%, 100%)" d="M 182.855469 112.5 L 183.003906 116.785156 L 177.855469 116.785156 L 178.148438 121.507812 C 172.460938 117.230469 165 115.804688 165 115.804688 C 165 115.804688 162.835938 118.414062 161.003906 123.660156 C 157.855469 121.605469 152.96875 120.714844 152.96875 120.714844 C 152.96875 120.714844 149.21875 125.457031 147.746094 134.164062 L 144.53125 130.492188 L 140.648438 134.375 L 137.699219 131.25 L 131.136719 137.8125 L 134.261719 140.757812 L 130.625 144.398438 L 134.253906 147.601562 C 127.222656 148.609375 120.96875 152.855469 120.96875 152.855469 C 120.96875 152.855469 121.277344 156.234375 123.695312 161.238281 C 120.015625 162.011719 115.925781 164.84375 115.925781 164.84375 C 115.925781 164.84375 116.617188 170.75 121.617188 177.867188 L 116.785156 177.546875 L 116.785156 183.023438 L 112.5 182.902344 L 112.5 192.1875 L 116.785156 192.042969 L 116.785156 197.1875 L 121.507812 196.898438 C 117.242188 202.582031 115.816406 210.023438 115.816406 210.023438 C 115.816406 210.023438 118.425781 212.1875 123.671875 214.019531 C 121.617188 217.164062 120.726562 222.054688 120.726562 222.054688 C 120.726562 222.054688 125.449219 225.773438 134.117188 227.253906 L 130.445312 230.46875 L 134.320312 234.351562 L 131.207031 237.289062 L 137.769531 243.863281 L 140.703125 240.726562 L 144.339844 244.363281 L 147.578125 240.703125 C 148.523438 247.832031 152.878906 254.230469 152.878906 254.230469 C 152.878906 254.230469 156.257812 253.910156 161.261719 251.496094 C 162.035156 255.171875 164.855469 259.265625 164.855469 259.265625 C 164.855469 259.265625 170.710938 258.570312 177.789062 253.628906 L 177.488281 258.214844 L 182.96875 258.214844 L 182.847656 262.5 L 192.132812 262.5 L 191.988281 258.214844 L 197.132812 258.214844 L 196.832031 253.328125 C 202.546875 257.742188 210.210938 259.199219 210.210938 259.199219 C 210.210938 259.199219 212.378906 256.585938 214.207031 251.339844 C 217.355469 253.394531 222.242188 254.285156 222.242188 254.285156 C 222.242188 254.285156 225.921875 249.628906 227.421875 241.074219 L 230.46875 244.554688 L 234.351562 240.671875 L 237.277344 243.796875 L 243.863281 237.234375 L 240.714844 234.285156 L 244.355469 230.648438 L 240.769531 227.476562 C 247.894531 226.53125 254.285156 222.1875 254.285156 222.1875 C 254.285156 222.1875 253.976562 218.808594 251.5625 213.804688 C 255.242188 213.03125 259.320312 210.214844 259.320312 210.214844 C 259.320312 210.214844 258.636719 204.308594 253.652344 197.199219 L 258.214844 197.5 L 258.214844 192.019531 L 262.5 192.144531 L 262.5 182.859375 L 258.214844 183.003906 L 258.214844 177.859375 L 253.449219 178.148438 C 257.808594 172.441406 259.265625 164.855469 259.265625 164.855469 C 259.265625 164.855469 256.652344 162.691406 251.40625 160.859375 C 253.460938 157.710938 254.355469 152.824219 254.355469 152.824219 C 254.355469 152.824219 249.644531 149.109375 241.015625 147.625 L 244.542969 144.53125 L 240.671875 140.648438 L 243.785156 137.710938 L 237.222656 131.140625 L 234.285156 134.273438 L 230.648438 130.636719 L 227.46875 134.21875 C 226.484375 127.148438 222.199219 120.816406 222.199219 120.816406 C 222.199219 120.816406 218.820312 121.136719 213.816406 123.550781 C 213.042969 119.871094 210.222656 115.78125 210.222656 115.78125 C 210.222656 115.78125 204.308594 116.480469 197.1875 121.484375 L 197.5 116.785156 L 192.019531 116.785156 L 192.144531 112.5 Z M 184.285156 113.929688 L 190.714844 113.929688 L 188.582031 178.640625 C 188.226562 178.597656 187.867188 178.574219 187.5 178.574219 C 187.132812 178.574219 186.773438 178.597656 186.417969 178.640625 Z M 179.285156 118.214844 L 183.003906 118.214844 L 185 178.929688 C 184.363281 179.113281 183.761719 179.371094 183.191406 179.6875 Z M 191.988281 118.214844 L 196.070312 118.214844 L 191.808594 179.6875 C 191.238281 179.371094 190.636719 179.113281 190 178.925781 L 191.988281 118.210938 Z M 166.496094 119.574219 C 166.496094 119.574219 170.640625 120.414062 178.402344 125.738281 L 181.761719 180.667969 C 181.351562 181.015625 180.96875 181.382812 180.625 181.796875 L 125.734375 178.136719 C 121.21875 171.902344 119.863281 166.472656 119.863281 166.472656 C 119.863281 166.472656 122.746094 164.238281 128.570312 163.214844 C 125.28125 158.136719 124.6875 154.472656 124.6875 154.472656 C 124.6875 154.472656 128.203125 152.148438 137.433594 150.421875 L 162.679688 172.765625 L 172.722656 162.722656 L 150.46875 137.277344 C 151.660156 129.542969 154.597656 124.640625 154.597656 124.640625 C 154.597656 124.640625 158.214844 125.109375 163.058594 128.503906 C 164.320312 122.589844 166.496094 119.574219 166.496094 119.574219 Z M 208.59375 119.710938 C 208.59375 119.710938 210.816406 122.601562 211.84375 128.425781 C 216.917969 125.136719 220.59375 124.542969 220.59375 124.542969 C 220.59375 124.542969 222.941406 128.085938 224.667969 137.398438 L 202.277344 162.6875 L 212.3125 172.722656 L 237.902344 150.335938 C 245.570312 151.535156 250.425781 154.453125 250.425781 154.453125 C 250.425781 154.453125 249.957031 158.070312 246.5625 162.914062 C 252.480469 164.175781 255.492188 166.351562 255.492188 166.351562 C 255.492188 166.351562 254.644531 170.542969 249.230469 178.402344 L 194.332031 181.761719 C 193.996094 181.367188 193.636719 181.003906 193.238281 180.667969 L 196.910156 125.601562 C 203.152344 121.074219 208.59375 119.707031 208.59375 119.707031 Z M 144.53125 132.523438 L 170.824219 162.746094 L 168.972656 164.597656 L 141.628906 135.402344 Z M 230.644531 132.65625 L 233.277344 135.277344 L 205.9375 164.488281 L 204.171875 162.722656 Z M 237.21875 133.160156 L 241.761719 137.710938 L 209.441406 167.980469 L 206.949219 165.503906 Z M 137.699219 133.28125 L 167.964844 165.601562 L 165.488281 168.082031 L 133.144531 137.8125 Z M 239.628906 141.640625 L 242.519531 144.53125 L 212.296875 170.835938 L 210.445312 168.984375 Z M 135.265625 141.761719 L 164.484375 169.105469 L 162.71875 170.871094 L 132.652344 144.398438 Z M 118.210938 178.972656 L 179.660156 183.238281 C 179.351562 183.808594 179.097656 184.410156 178.914062 185.046875 L 118.210938 183.046875 Z M 256.785156 179.285156 L 256.785156 183.003906 L 196.070312 185 C 195.882812 184.363281 195.625 183.761719 195.308594 183.191406 L 256.78125 179.285156 Z M 187.496094 181.070312 C 191.046875 181.070312 193.925781 183.953125 193.925781 187.5 C 193.925781 191.050781 191.046875 193.929688 187.496094 193.929688 C 183.949219 193.929688 181.070312 191.050781 181.070312 187.5 C 181.070312 183.953125 183.949219 181.070312 187.496094 181.070312 Z M 261.070312 184.285156 L 261.070312 190.714844 L 196.359375 188.582031 C 196.402344 188.230469 196.425781 187.867188 196.425781 187.5 C 196.425781 187.136719 196.402344 186.773438 196.359375 186.417969 Z M 113.925781 184.332031 L 178.625 186.460938 C 178.585938 186.800781 178.570312 187.152344 178.570312 187.5 C 178.570312 187.882812 178.589844 188.257812 178.636719 188.628906 L 113.925781 190.757812 Z M 178.925781 190 C 179.117188 190.652344 179.382812 191.273438 179.707031 191.851562 L 118.210938 195.761719 L 118.210938 192.042969 L 178.925781 190.046875 Z M 196.070312 190 L 256.785156 192 L 256.785156 196.070312 L 195.3125 191.808594 C 195.625 191.238281 195.886719 190.636719 196.070312 190 Z M 194.328125 193.238281 L 249.527344 196.921875 C 254.039062 203.148438 255.386719 208.582031 255.386719 208.582031 C 255.386719 208.582031 252.507812 210.804688 246.683594 211.832031 C 249.972656 216.90625 250.566406 220.582031 250.566406 220.582031 C 250.566406 220.582031 246.996094 222.949219 237.597656 224.675781 L 212.296875 202.277344 L 202.273438 212.320312 L 224.707031 237.96875 C 223.492188 245.5625 220.609375 250.359375 220.609375 250.359375 C 220.609375 250.359375 216.996094 249.890625 212.148438 246.496094 C 210.886719 252.410156 208.710938 255.425781 208.710938 255.425781 C 208.710938 255.425781 204.488281 254.570312 196.570312 249.097656 L 193.222656 194.34375 C 193.625 194.007812 193.988281 193.640625 194.328125 193.238281 Z M 180.699219 193.28125 C 181.023438 193.660156 181.367188 194.011719 181.75 194.332031 L 178.066406 249.53125 C 171.867188 254 166.480469 255.335938 166.480469 255.335938 C 166.480469 255.335938 164.25 252.441406 163.222656 246.617188 C 158.148438 249.90625 154.484375 250.503906 154.484375 250.503906 C 154.484375 250.503906 152.117188 246.9375 150.386719 237.535156 L 172.710938 212.308594 L 162.675781 202.277344 L 137.21875 224.554688 C 129.523438 223.355469 124.652344 220.425781 124.652344 220.425781 C 124.652344 220.425781 125.121094 216.808594 128.511719 211.964844 C 122.597656 210.703125 119.585938 208.527344 119.585938 208.527344 C 119.585938 208.527344 120.421875 204.390625 125.734375 196.640625 L 180.703125 193.28125 Z M 183.179688 195.3125 C 183.746094 195.628906 184.351562 195.886719 184.988281 196.070312 L 183 256.785156 L 178.914062 256.785156 L 183.179688 195.316406 Z M 191.792969 195.324219 L 195.699219 256.785156 L 191.984375 256.785156 L 189.988281 196.070312 C 190.621094 195.886719 191.226562 195.636719 191.792969 195.324219 Z M 186.402344 196.363281 C 186.761719 196.40625 187.128906 196.429688 187.496094 196.429688 C 187.859375 196.429688 188.21875 196.40625 188.570312 196.363281 L 190.699219 261.074219 L 184.273438 261.074219 Z M 162.6875 204.164062 L 164.539062 206.015625 L 135.355469 233.359375 L 132.464844 230.46875 Z M 212.273438 204.175781 L 242.339844 230.648438 L 239.707031 233.28125 L 210.511719 205.9375 Z M 209.484375 206.964844 L 241.828125 237.234375 L 237.273438 241.765625 L 207.003906 209.441406 Z M 165.542969 207.019531 L 168.03125 209.5 L 137.765625 241.84375 L 133.222656 237.289062 Z M 206 210.449219 L 233.34375 239.644531 L 230.464844 242.523438 L 204.148438 212.300781 Z M 169.046875 210.515625 L 170.808594 212.277344 L 144.335938 242.34375 L 141.703125 239.722656 Z M 169.046875 210.515625 " fill-opacity="1" fill-rule="nonzero"/></g><g fill="rgb(100%, 100%, 100%)" fill-opacity="1"><g transform="translate(134.149214, 300.749013)"><g><path d="M 5.898438 0 C 12.222656 0 15.097656 -3.699219 15.097656 -8.5 C 15.097656 -13.296875 12.199219 -17 5.898438 -17 L 1.851562 -17 C 1.523438 -17 1.351562 -16.824219 1.351562 -16.5 L 1.351562 -0.5 C 1.351562 -0.175781 1.523438 0 1.851562 0 Z M 5.097656 -13.597656 L 6.25 -13.597656 C 9.898438 -13.597656 11.347656 -11.324219 11.347656 -8.5 C 11.347656 -5.675781 9.875 -3.398438 6.25 -3.398438 L 5.097656 -3.398438 Z M 5.097656 -13.597656 "/></g></g></g><g fill="rgb(100%, 100%, 100%)" fill-opacity="1"><g transform="translate(149.921713, 300.749013)"><g><path d="M 10.636719 -9.238281 C 9.660156 -10.597656 8.113281 -11.425781 6.222656 -11.425781 C 2.976562 -11.425781 0.726562 -9 0.726562 -5.523438 C 0.726562 -2.023438 2.976562 0.398438 6.222656 0.398438 C 8.113281 0.398438 9.660156 -0.425781 10.636719 -1.800781 C 11.25 -0.574219 12.296875 0.101562 13.75 0.25 L 13.75 -11.273438 C 12.296875 -11.125 11.25 -10.449219 10.636719 -9.238281 Z M 7.375 -2.601562 C 5.847656 -2.601562 4.75 -3.800781 4.75 -5.5 C 4.75 -7.199219 5.847656 -8.398438 7.375 -8.398438 C 8.898438 -8.398438 10 -7.199219 10 -5.5 C 10 -3.800781 8.898438 -2.601562 7.375 -2.601562 Z M 7.375 -2.601562 "/></g></g></g><g fill="rgb(100%, 100%, 100%)" fill-opacity="1"><g transform="translate(164.894337, 300.749013)"><g><path d="M 6.148438 -11.023438 L 6.148438 -15.773438 C 3.726562 -15.273438 2.398438 -13.597656 2.398438 -11.023438 L 0.800781 -11.023438 C 0.476562 -11.023438 0.300781 -10.847656 0.300781 -10.523438 L 0.300781 -8.625 C 0.300781 -8.300781 0.476562 -8.125 0.800781 -8.125 L 2.398438 -8.125 L 2.398438 -0.5 C 2.398438 -0.175781 2.574219 0 2.898438 0 L 5.648438 0 C 5.972656 0 6.148438 -0.175781 6.148438 -0.5 L 6.148438 -8.125 L 7.773438 -8.125 C 8.097656 -8.125 8.273438 -8.300781 8.273438 -8.625 L 8.273438 -10.523438 C 8.273438 -10.847656 8.097656 -11.023438 7.773438 -11.023438 Z M 6.148438 -11.023438 "/></g></g></g><g fill="rgb(100%, 100%, 100%)" fill-opacity="1"><g transform="translate(173.467976, 300.749013)"><g><path d="M 10.636719 -9.238281 C 9.660156 -10.597656 8.113281 -11.425781 6.222656 -11.425781 C 2.976562 -11.425781 0.726562 -9 0.726562 -5.523438 C 0.726562 -2.023438 2.976562 0.398438 6.222656 0.398438 C 8.113281 0.398438 9.660156 -0.425781 10.636719 -1.800781 C 11.25 -0.574219 12.296875 0.101562 13.75 0.25 L 13.75 -11.273438 C 12.296875 -11.125 11.25 -10.449219 10.636719 -9.238281 Z M 7.375 -2.601562 C 5.847656 -2.601562 4.75 -3.800781 4.75 -5.5 C 4.75 -7.199219 5.847656 -8.398438 7.375 -8.398438 C 8.898438 -8.398438 10 -7.199219 10 -5.5 C 10 -3.800781 8.898438 -2.601562 7.375 -2.601562 Z M 7.375 -2.601562 "/></g></g></g><g fill="rgb(100%, 100%, 100%)" fill-opacity="1"><g transform="translate(188.440601, 300.749013)"><g><path d="M 6.148438 -11.023438 L 6.148438 -15.773438 C 3.726562 -15.273438 2.398438 -13.597656 2.398438 -11.023438 L 0.800781 -11.023438 C 0.476562 -11.023438 0.300781 -10.847656 0.300781 -10.523438 L 0.300781 -8.625 C 0.300781 -8.300781 0.476562 -8.125 0.800781 -8.125 L 2.398438 -8.125 L 2.398438 -0.5 C 2.398438 -0.175781 2.574219 0 2.898438 0 L 5.648438 0 C 5.972656 0 6.148438 -0.175781 6.148438 -0.5 L 6.148438 -8.125 L 7.773438 -8.125 C 8.097656 -8.125 8.273438 -8.300781 8.273438 -8.625 L 8.273438 -10.523438 C 8.273438 -10.847656 8.097656 -11.023438 7.773438 -11.023438 Z M 6.148438 -11.023438 "/></g></g></g><g fill="rgb(100%, 100%, 100%)" fill-opacity="1"><g transform="translate(197.014239, 300.749013)"><g><path d="M 8.550781 -11.175781 C 8.300781 -11.222656 8 -11.273438 7.722656 -11.273438 C 6.398438 -11.273438 5.160156 -10.675781 4.375 -9.074219 C 3.773438 -10.210938 2.699219 -10.960938 1.199219 -11.273438 L 1.199219 -0.5 C 1.199219 -0.175781 1.375 0 1.699219 0 L 4.449219 0 C 4.773438 0 4.949219 -0.175781 4.949219 -0.5 L 4.949219 -5.550781 C 5.097656 -7.074219 5.875 -7.875 7.222656 -7.875 C 7.574219 -7.875 7.949219 -7.824219 8.375 -7.722656 C 8.722656 -7.625 8.949219 -7.773438 8.949219 -8.125 L 8.949219 -10.597656 C 8.949219 -10.875 8.824219 -11.097656 8.550781 -11.175781 Z M 8.550781 -11.175781 "/></g></g></g><g fill="rgb(100%, 100%, 100%)" fill-opacity="1"><g transform="translate(206.387751, 300.749013)"><g><path d="M 10.636719 -9.238281 C 9.660156 -10.597656 8.113281 -11.425781 6.222656 -11.425781 C 2.976562 -11.425781 0.726562 -9 0.726562 -5.523438 C 0.726562 -2.023438 2.976562 0.398438 6.222656 0.398438 C 8.113281 0.398438 9.660156 -0.425781 10.636719 -1.800781 C 11.25 -0.574219 12.296875 0.101562 13.75 0.25 L 13.75 -11.273438 C 12.296875 -11.125 11.25 -10.449219 10.636719 -9.238281 Z M 7.375 -2.601562 C 5.847656 -2.601562 4.75 -3.800781 4.75 -5.5 C 4.75 -7.199219 5.847656 -8.398438 7.375 -8.398438 C 8.898438 -8.398438 10 -7.199219 10 -5.5 C 10 -3.800781 8.898438 -2.601562 7.375 -2.601562 Z M 7.375 -2.601562 "/></g></g></g><g fill="rgb(100%, 100%, 100%)" fill-opacity="1"><g transform="translate(221.360375, 300.749013)"><g><path d="M 2.898438 -13.199219 C 4.25 -13.199219 5.648438 -13.875 5.648438 -15.222656 C 5.648438 -16.546875 4.25 -17.25 2.898438 -17.25 C 1.523438 -17.25 0.148438 -16.546875 0.148438 -15.222656 C 0.148438 -13.875 1.523438 -13.199219 2.898438 -13.199219 Z M 4.449219 0 C 4.773438 0 4.949219 -0.175781 4.949219 -0.5 L 4.949219 -6.523438 C 4.949219 -9.097656 3.625 -10.773438 1.199219 -11.273438 L 1.199219 -0.5 C 1.199219 -0.175781 1.375 0 1.699219 0 Z M 4.449219 0 "/></g></g></g><g fill="rgb(100%, 100%, 100%)" fill-opacity="1"><g transform="translate(227.359425, 300.749013)"><g><path d="M 8.300781 -11.425781 C 6.847656 -11.425781 5.5 -10.785156 4.363281 -9.113281 C 3.75 -10.222656 2.675781 -10.972656 1.199219 -11.273438 L 1.199219 -0.5 C 1.199219 -0.175781 1.375 0 1.699219 0 L 4.449219 0 C 4.773438 0 4.949219 -0.175781 4.949219 -0.5 L 4.949219 -6.210938 C 5.097656 -7.585938 5.960938 -8.425781 7.023438 -8.425781 C 8.199219 -8.425781 8.699219 -7.699219 8.699219 -6.398438 L 8.699219 -0.5 C 8.699219 -0.175781 8.875 0 9.199219 0 L 11.949219 0 C 12.273438 0 12.449219 -0.175781 12.449219 -0.5 L 12.449219 -6.398438 C 12.449219 -9.398438 11.25 -11.425781 8.300781 -11.425781 Z M 8.300781 -11.425781 "/></g></g></g></svg>